PathFileType	4	(X/Y/Z)	G:\Shared drives\HIT\Data\HapticPilot\Subject1\Edited\LHJC1.trc
DataRate	CameraRate	NumFrames	NumMarkers	Units	OrigDataRate	OrigDataStartFrame	OrigNumFrames
50.00	50.00	       6	38	mm	50.00	86	       684
Frame#	Time	r_knee			r_shank(antsup)			r_ankle			r_calc			r_5meta			r_toe			L_knee			L_shank(ant_sup)			L_ankle			L_calc			L_5meta			L_toe			r_mknee			r_mankle			L_mknee			L_mankle			r_sh2			r_sh3			r_sh4			L_sh2			L_sh3			r_thigh1			r_thigh2			r_thigh3			r_thigh4			r_thigh5			L_thigh1			L_thigh2			L_thigh3			L_thigh4			r.ASIS			r.PSIS			L.ASIS			L.PSIS			C7			R_Shoulder			L_Shoulder			Sternum			
		X1	Y1	Z1	X2	Y2	Z2	X3	Y3	Z3	X4	Y4	Z4	X5	Y5	Z5	X6	Y6	Z6	X7	Y7	Z7	X8	Y8	Z8	X9	Y9	Z9	X10	Y10	Z10	X11	Y11	Z11	X12	Y12	Z12	X13	Y13	Z13	X14	Y14	Z14	X15	Y15	Z15	X16	Y16	Z16	X17	Y17	Z17	X18	Y18	Z18	X19	Y19	Z19	X20	Y20	Z20	X21	Y21	Z21	X22	Y22	Z22	X23	Y23	Z23	X24	Y24	Z24	X25	Y25	Z25	X26	Y26	Z26	X27	Y27	Z27	X28	Y28	Z28	X29	Y29	Z29	X30	Y30	Z30	X31	Y31	Z31	X32	Y32	Z32	X33	Y33	Z33	X34	Y34	Z34	X35	Y35	Z35	X36	Y36	Z36	X37	Y37	Z37	X38	Y38	Z38	

86	1.700	782.00488	266.17261	572.71649	795.79492	263.51556	483.13501	711.51080	285.07504	113.51098	623.10779	333.64774	72.64072	818.28839	250.07094	39.47045	863.39270	310.87332	70.85435	970.07471	586.27197	646.24420	1047.02893	588.46686	551.79504	1125.11584	608.84314	203.34799	1059.48999	562.71576	143.86041	1263.57849	631.92645	162.31136	1291.44653	573.81744	206.04988	781.27490	394.38031	557.92053	727.95245	380.61917	119.04054	984.19128	462.01208	635.81097	1143.35974	515.43451	218.66196	783.31958	268.20898	363.90176	720.56866	250.92087	488.19473	701.09772	252.01337	373.68179	960.36847	612.93011	533.27814	1003.65222	621.38031	418.48474	833.59161	238.83414	897.71069	841.60529	244.88963	782.79095	796.90100	234.70265	747.43213	720.88043	228.34634	883.76605	734.22424	245.87677	767.72534	907.15424	589.96259	920.54395	980.40948	587.59375	802.89429	809.27936	616.68207	862.32867	881.76324	604.01221	749.61548	842.72693	279.40314	1096.79919	645.61761	359.43109	1114.55298	824.62195	533.25879	1127.40625	642.67651	439.96738	1118.89734	720.76019	392.12177	1614.54077	781.51678	227.85509	1583.93640	772.47656	574.02478	1573.11047	853.33850	395.44540	1530.30334	
87	1.720	780.78546	265.55161	572.77051	794.70007	262.83524	483.24655	711.43842	285.10068	113.44437	623.09082	333.71176	72.59653	818.25598	250.00015	39.46368	863.35486	310.76984	70.84233	985.23853	585.20990	656.68665	1067.00635	586.80579	566.14746	1162.37256	608.63110	222.51041	1098.64441	562.41760	161.48567	1303.10547	628.92572	184.49910	1329.33423	570.57050	229.02888	780.75519	394.02039	557.85016	728.01965	380.59058	119.01064	999.05219	461.25623	646.87170	1179.92786	514.41626	237.90703	782.48114	267.57849	363.96579	719.82391	251.10265	488.14841	700.16235	252.19017	373.55634	981.57733	611.93640	543.65308	1030.19409	620.46869	430.81567	831.04779	237.69429	898.00800	840.02496	243.71164	783.25769	795.00934	234.12119	747.77264	718.35413	228.38202	883.77600	732.26691	245.76355	767.88635	910.94049	588.38043	928.46326	988.60974	585.87775	813.49738	815.43677	616.34424	865.56793	893.09222	602.91199	755.64441	839.74835	278.36972	1097.53235	642.91376	358.85049	1113.61597	821.54132	532.21954	1128.50989	639.76483	439.41962	1117.55457	719.51794	390.67386	1614.37012	780.90344	226.68196	1583.51147	770.45111	572.69739	1572.90820	851.70020	394.58670	1529.57178	
88	1.740	779.47162	264.90588	572.96429	793.56293	262.24683	483.34570	711.40131	285.14508	113.39553	623.05774	333.77243	72.55330	818.22150	249.95450	39.40504	863.32758	310.67676	70.83831	1000.22278	584.26581	667.81476	1086.19019	585.44165	581.76953	1199.61084	606.77020	243.11833	1136.91394	562.23309	180.80484	1341.45020	625.81390	208.39159	1365.86902	566.82965	253.79198	781.18170	393.07034	558.01654	728.05426	380.51440	119.05408	1013.37830	459.22922	658.05981	1215.18042	513.15399	259.05902	781.49878	267.08154	363.92581	718.14764	250.69836	488.04044	699.07477	252.21234	373.52460	1002.54968	611.22729	555.37524	1056.34985	619.58771	444.71854	828.92535	236.64926	898.44049	838.43097	242.74477	783.57758	793.18542	233.50511	748.02167	716.01208	228.55142	883.69507	730.44238	245.63724	767.93677	914.18201	586.71521	936.33740	997.02893	583.98352	824.90826	822.13739	616.33307	869.22650	904.36633	602.06024	762.96063	836.89209	277.27682	1098.12402	640.08325	358.62906	1112.57861	818.79102	530.94202	1129.56482	637.10071	438.86819	1116.51221	718.16479	389.39505	1614.46997	779.87933	225.58015	1583.25415	768.21521	571.67780	1572.56262	849.96399	393.82095	1529.01917	
89	1.760	778.83484	263.67746	573.26697	792.28052	261.82800	483.45108	711.33868	285.20218	113.36781	623.07654	333.79245	72.54683	818.20313	249.90195	39.39134	863.31036	310.59924	70.87766	1015.03271	583.18109	680.50757	1104.82739	584.27448	598.25494	1234.73425	605.71765	265.40475	1173.27612	561.86426	202.10970	1378.02039	622.08063	233.02650	1400.66052	563.86090	279.60660	780.72241	392.51266	558.32599	728.11438	380.52936	119.12546	1027.65857	458.56375	671.00696	1248.85120	511.95343	281.98343	780.60699	266.66675	364.01822	716.89465	250.62495	488.02728	698.06958	252.37349	373.43555	1022.17950	610.41339	567.61035	1081.38196	618.63458	459.72147	827.53857	235.99506	898.57928	836.99353	242.01123	784.05011	791.67096	233.07275	748.23547	713.93042	228.38757	883.76117	728.87732	245.26006	767.93872	917.44873	585.12030	944.67352	1005.12769	582.27148	836.91907	828.26288	616.39276	874.03363	915.56354	601.40936	770.70343	834.00116	276.12466	1098.66333	637.59467	357.54272	1111.41504	816.42902	529.53912	1130.82886	634.46472	438.48380	1116.05420	716.80768	388.33267	1614.51697	778.71545	224.69203	1583.19751	765.90753	570.76154	1572.24585	848.17688	393.12756	1528.75635	
90	1.780	776.98529	264.07101	573.31268	790.96869	261.53149	483.55234	711.25153	285.27042	113.33793	623.03754	333.90912	72.47630	818.16638	249.85281	39.38729	863.28082	310.51862	70.90154	1029.24194	582.37946	693.61804	1122.35156	583.47241	615.26227	1268.31995	604.77795	288.78186	1208.06934	561.26672	224.61411	1413.13196	618.69556	258.88803	1434.00146	560.60919	306.60947	780.12561	392.17783	558.58673	728.14526	380.55444	119.16290	1041.86902	457.74826	684.52325	1280.92017	511.38370	306.19827	779.55731	266.32321	364.17734	715.54993	250.66841	488.04770	697.04980	252.61935	373.38837	1041.42786	609.63202	581.12128	1105.18469	617.89612	475.81030	826.45734	235.44742	898.62592	835.58350	241.42583	784.49579	790.29639	232.63217	748.50696	712.33142	228.21956	883.91406	727.51459	245.15601	768.06421	920.45575	583.76825	953.32404	1012.67773	580.73230	849.66571	835.48126	616.34418	878.49860	926.65649	600.80249	779.44275	831.53851	274.67819	1099.24451	635.45258	356.98907	1110.68579	814.07440	527.92914	1132.18408	632.37598	437.90701	1115.56030	715.22241	387.47131	1614.65796	777.20520	223.90759	1583.34937	763.61176	570.02094	1572.00366	846.55585	392.40591	1528.82251	
91	1.800	775.97784	263.88531	573.47778	789.81470	261.28561	483.79016	711.17627	285.41089	113.33273	623.03723	333.99423	72.53043	818.18188	249.83176	39.40370	863.28815	310.48239	70.94448	1043.18787	581.73077	707.48737	1139.61536	583.76489	633.49805	1299.93823	604.02472	313.11868	1240.81152	560.79352	248.37325	1446.30286	615.83350	286.31049	1464.20679	557.59277	334.78317	779.46356	391.98495	558.77252	728.17596	380.61166	119.19411	1055.51453	457.09985	698.83948	1311.59436	510.29016	331.68530	778.71521	266.03015	364.43567	714.76483	250.98317	488.27774	696.05463	252.84616	373.39328	1059.92920	609.42816	595.87329	1128.02185	617.24469	492.48639	823.56152	234.37155	899.68311	834.36517	241.02759	784.72455	789.18439	232.31671	748.77002	710.86847	228.22800	883.95142	726.34906	245.06302	768.24811	923.22241	582.58215	962.32404	1020.02203	579.54163	862.75397	841.75195	616.15070	883.84686	937.26678	600.33759	788.87714	829.18719	273.53940	1099.85535	633.38770	356.47067	1110.19360	812.34283	526.48065	1133.86304	630.51141	437.64920	1115.18298	713.48462	387.03601	1614.86121	775.51483	223.17792	1583.76245	761.55103	569.32428	1571.93030	844.89667	391.90704	1528.96106	
